<svg xmlns="http://www.w3.org/2000/svg" viewBox="0 0 384 512" width="24" height="24">
  <path fill="#22c55e" d="M96 454a22 22 0 0 0 22 22h148a22 22 0 0 0 22-22v-10H96zm96-454C43 0 0 176 0 256c0 77.7 54.5 139.7 128 155.2V464a48 48 0 0 0 48 48h32a48 48 0 0 0 48-48v-52.8C329.5 395.7 384 333.7 384 256 384 176 341 0 192 0zm0 464a16 16 0 0 1-16-16v-16h32v16a16 16 0 0 1-16 16zm0-416c-79.5 0-144 64.5-144 144 0 61.9 39.2 114.1 96 133.7V400h96v-74.3c56.8-19.6 96-71.8 96-133.7 0-79.5-64.5-144-144-144z"/>
</svg> 